0
SECTION
2
HEADER
9
$INSUNITS
70
1
9
$ACADVER
1
AC1014
9
$HANDSEED
5
FFFF
0
ENDSEC
0
SECTION
2
TABLES
0
TABLE
2
VPORT
5
8
100
AcDbSymbolTable
0
ENDTAB
0
TABLE
2
LTYPE
5
5
100
AcDbSymbolTable
0
LTYPE
5
14
100
AcDbSymbolTableRecord
100
AcDbLinetypeTableRecord
2
BYBLOCK
70
0
0
LTYPE
5
15
100
AcDbSymbolTableRecord
100
AcDbLinetypeTableRecord
2
BYLAYER
70
0
0
ENDTAB
0
TABLE
2
LAYER
5
2
100
AcDbSymbolTable
70
2
0
LAYER
5
50
100
AcDbSymbolTableRecord
100
AcDbLayerTableRecord
2
0
70
0
6
CONTINUOUS
0
ENDTAB
0
TABLE
2
STYLE
5
3
100
AcDbSymbolTable
70
1
0
STYLE
5
11
100
AcDbSymbolTableRecord
100
AcDbTextStyleTableRecord
2
STANDARD
70
0
0
ENDTAB
0
TABLE
2
VIEW
5
6
100
AcDbSymbolTable
70
0
0
ENDTAB
0
TABLE
2
UCS
5
7
100
AcDbSymbolTable
70
0
0
ENDTAB
0
TABLE
2
APPID
5
9
100
AcDbSymbolTable
70
2
0
APPID
5
12
100
AcDbSymbolTableRecord
100
AcDbRegAppTableRecord
2
ACAD
70
0
0
ENDTAB
0
TABLE
2
DIMSTYLE
5
A
100
AcDbSymbolTable
70
1
0
ENDTAB
0
TABLE
2
BLOCK_RECORD
5
1
100
AcDbSymbolTable
70
1
0
BLOCK_RECORD
5
1F
100
AcDbSymbolTableRecord
100
AcDbBlockTableRecord
2
*MODEL_SPACE
0
BLOCK_RECORD
5
1B
100
AcDbSymbolTableRecord
100
AcDbBlockTableRecord
2
*PAPER_SPACE
0
ENDTAB
0
ENDSEC
0
SECTION
2
BLOCKS
0
BLOCK
5
20
100
AcDbEntity
100
AcDbBlockBegin
2
*MODEL_SPACE
0
ENDBLK
5
21
100
AcDbEntity
100
AcDbBlockEnd
0
BLOCK
5
1C
100
AcDbEntity
100
AcDbBlockBegin
2
*PAPER_SPACE
0
ENDBLK
5
1D
100
AcDbEntity
100
AcDbBlockEnd
0
ENDSEC
0
SECTION
2
ENTITIES
0
LWPOLYLINE
5
100
100
AcDbEntity
8
0
100
AcDbPolyline
90
10
70
1
43
0.0
10
25.362591442049222
20
20.443070149163518
10
25.996339473876787
20
20.665375639178496
42
0.21572358943682082
10
26.151991084856853
20
20.813999016717421
10
28.044496951769545
20
25.503723792998667
42
0.41501999089704911
10
27.979046806007364
20
25.657149796222345
10
26.592501839853796
20
26.212247282090839
42
0.34242854029269265
10
26.413082738507423
20
26.160844256723635
10
24.454493226596881
20
23.485537141104071
42
0.23264773770601888
10
24.417634241598495
20
23.276803938580581
10
25.218228610512039
20
20.517407496688612
42
0.43041235154235152
0
LWPOLYLINE
5
101
100
AcDbEntity
8
0
100
AcDbPolyline
90
9
70
1
43
0.0
10
21.339555210665882
20
4.2100641224336028
10
21.513815721271556
20
6.5422639150505679
42
0.67814713191410958
10
21.435256945768863
20
6.5805576521307492
10
20.080274900455546
20
5.3476613131546999
42
0.045086116079290417
10
19.921219180399827
20
5.1743133508900598
10
19.567002718172073
20
4.7105982267518307
42
0.36003258139337835
10
19.567562689593867
20
4.6961925672871594
42
0.12902228913123473
10
19.582659590272275
20
4.686211795380868
10
21.218922828291657
20
4.1302779815842712
42
0.49039523595192985
0
LWPOLYLINE
5
102
100
AcDbEntity
8
0
100
AcDbPolyline
90
7
70
1
43
0.0
10
20.328909442618176
20
6.6384638438106842
10
21.65544790209794
20
7.8454794023270793
42
0.058279916358748393
10
21.716133404977551
20
7.9152159603256695
42
0.48945353780654166
10
21.698678841256765
20
7.9695808854315766
10
20.609679121955846
20
8.3668249141082214
42
0.4776172427796167
10
20.482443943858453
20
8.2903168919269632
10
20.257826800782162
20
6.6759589900536103
42
0.70163995414219782
0
LWPOLYLINE
5
103
100
AcDbEntity
8
0
100
AcDbPolyline
90
12
70
1
43
0.0
10
20.408779393394738
20
9.2782621037503397
10
22.270705450553255
20
8.599070920378427
42
0.14135008135261581
10
22.497132387164029
20
8.5834362674282882
10
23.128115004759884
20
8.7191790437787802
42
0.28372631461670011
10
23.273153746064427
20
8.8583683953210173
10
23.833954532157794
20
11.026994908264712
42
0.099685961165462036
10
23.846531546268345
20
11.258225001579323
10
23.458354222658837
20
13.92815080365256
42
0.10990536305469681
10
23.43319495232701
20
13.994327076025305
42
0.53333065837801108
10
23.392790905337257
20
13.994676359864583
10
20.269448057122062
20
9.4246951409749968
42
0.43169484533737601
10
20.289000313109597
20
9.3353848460187017
42
0.047645221467457567
0
LWPOLYLINE
5
104
100
AcDbEntity
8
0
100
AcDbPolyline
90
10
70
1
43
0.0
10
24.499929306394055
20
10.457272837153649
10
24.021420090439769
20
8.6068692747135778
42
0.22521832213719642
10
24.061723213815664
20
8.3972958905848554
10
25.445744362179823
20
6.5111275445061345
42
0.32542167664589977
10
25.627706429051951
20
6.4531339690984169
10
25.962487049528409
20
6.564333864323201
42
0.11975053018691573
10
26.157081920867078
20
6.686079795582093
10
28.231641520883475
20
8.8111454004441274
42
0.52293019294098231
10
28.206152658676675
20
8.9434838405371551
10
24.637494613833997
20
10.523797941540648
42
0.46305202156465619
0
LWPOLYLINE
5
105
100
AcDbEntity
8
0
100
AcDbPolyline
90
12
70
1
43
0.0
10
23.281913602229565
20
7.946849414904138
10
22.705264985435285
20
7.8227954678705869
42
0.19211601654182311
10
22.523137358712447
20
7.7004531021552367
10
22.440268456163619
20
7.5792415104561028
42
0.13203487202395384
10
22.364808721620843
20
7.3639578787720996
10
22.105828582304728
20
3.897920592954101
42
0.29480335381122147
10
22.200755973696623
20
3.7236538770635268
10
23.903976794504654
20
2.7961693000323558
42
0.47752932487494837
10
24.041184695154541
20
2.8529502089518219
10
24.901390659967159
20
5.7631079952618753
42
0.23425911119736623
10
24.864997196724772
20
5.9715983866897462
10
23.467255466910011
20
7.87646538231765
42
0.29559993899899484
0
LWPOLYLINE
5
106
100
AcDbEntity
8
0
100
AcDbPolyline
90
10
70
1
43
0.0
10
13.529204338721842
20
3.9635954406337901
10
14.141723961870573
20
0.96479520214720638
42
0.35635859469744474
10
14.283470770244358
20
0.84907424312552848
10
14.542217477590629
20
0.84907424312552937
42
0.25607429664670989
10
14.723869422528001
20
0.94863567719210318
10
17.334209793112446
20
5.0386929945860235
42
0.33552706950030547
10
17.319265192377181
20
5.2265149924885224
10
16.717227312116748
20
5.9035273674270803
42
0.36275684138682579
10
16.537927550352677
20
5.9302519602134662
10
13.606381218880438
20
4.1408523707050087
42
0.31599206542426489
0
LWPOLYLINE
5
107
100
AcDbEntity
8
0
100
AcDbPolyline
90
9
70
1
43
0.0
10
15.712536447831289
20
0.84907424312553081
10
17.958167249773844
20
0.84907424312553015
42
0.34473068955363795
10
18.104685740919805
20
0.96371716245395689
10
18.898849067854577
20
4.1686025896716075
42
0.24814438894464469
10
18.866485490312385
20
4.2988429754756172
42
0.11004281116245633
10
18.746020504348682
20
4.3851301788033101
10
18.151006026332144
20
4.6383608675579042
42
0.36647910929084815
10
17.978786810497791
20
4.5850512155844712
10
15.657967920327714
20
0.94863567719210329
42
0.59226250018752735
0
LWPOLYLINE
5
108
100
AcDbEntity
8
0
100
AcDbPolyline
90
10
70
1
43
0.0
10
19.005603857892091
20
0.84907424312552715
10
24.116060598346788
20
0.84907424312552837
42
0.50346183941611466
10
24.199847682438801
20
0.96208729161118922
10
23.951649522803041
20
1.7793091640076504
42
0.19680657124100448
10
23.813598388853553
20
1.9488070218440694
10
21.630580952945259
20
3.137563628421085
42
0.042807529555014545
10
21.415021179179142
20
3.2320442034623311
10
19.740237446362411
20
3.801065670323811
42
0.43922011374428732
10
19.599997399491837
20
3.7244185166858688
10
18.915901876597108
20
0.96371716245395578
42
0.48728664820153905
0
LWPOLYLINE
5
109
100
AcDbEntity
8
0
100
AcDbPolyline
90
14
70
1
43
0.0
10
29.240910109426217
20
0.96718447934600138
10
29.240910109426217
20
4.1946263273686526
42
0.23454016536042438
10
29.14683386205623
20
4.3841486604693936
10
28.720200546124506
20
4.7080006479944183
42
0.057049695794447977
10
28.518343782647211
20
4.8277179024429762
10
26.375996204899128
20
5.7878769464591073
42
0.1876656766677727
10
26.156127003990949
20
5.7989510062774565
10
25.799094795919288
20
5.6803600792610194
42
0.24543244502571437
10
25.653526192289551
20
5.5298632632408662
10
24.691660996710084
20
2.2757827257895897
42
0.14660199555873185
10
24.692504230009686
20
2.0495039590337081
10
25.022763153232166
20
0.96208729161119111
42
0.33026322821518728
10
25.175196541581098
20
0.84907424312552993
10
29.122799873205746
20
0.84907424312552904
42
0.41421356237309165
0
LWPOLYLINE
5
110
100
AcDbEntity
8
0
100
AcDbPolyline
90
9
70
1
43
0.0
10
29.195335103072441
20
8.6711100426988175
10
27.047700845786359
20
6.4711907480465962
42
0.52151002380014133
10
27.072975175355872
20
6.3383707569693479
10
28.473993686972818
20
5.7104611643639203
42
0.45151778357879191
10
28.616189802828412
20
5.7751409367377349
10
29.206494509677938
20
7.7130858348568436
42
0.074053618873326496
10
29.240910109426217
20
7.9441810010194178
10
29.240910109426217
20
8.6774152027365155
42
0.51368859117523025
10
29.224263099146704
20
8.689342919768297
42
0.11806061838996713
0
LWPOLYLINE
5
111
100
AcDbEntity
8
0
100
AcDbPolyline
90
10
70
1
43
0.0
10
24.730838976411409
20
11.343614432730107
10
28.90267130289299
20
9.4961957757117368
42
0.18823561579470069
10
29.122504387962312
20
9.4863495509632543
10
29.129072073101501
20
9.4885797715081015
42
0.32127573112460683
10
29.24091010942621
20
9.6446673895641695
10
29.240910109426217
20
12.035875619945756
42
0.33495377547012739
10
29.127333383115978
20
12.18639503913502
10
24.420875083210216
20
13.529385571895892
42
0.54407672653536965
10
24.324291601484774
20
13.444913372521142
10
24.605850683082014
20
11.508319421657724
42
0.25788464599610172
0
LWPOLYLINE
5
112
100
AcDbEntity
8
0
100
AcDbPolyline
90
9
70
1
43
0.0
10
23.807610789153973
20
14.857538039321309
10
24.013692458097136
20
14.544523120122388
42
0.17954060238738009
10
24.192217685205271
20
14.413464455937724
10
29.127333383115982
20
13.005226405574808
42
0.49817921545319716
10
29.240910109426217
20
13.09092745882649
10
29.240910109426217
20
15.524485260044337
42
0.44548081454071981
10
29.123457325259569
20
15.630150762777939
10
23.781049210281388
20
15.064094831105358
42
0.50714005566029507
10
23.736815209096136
20
14.987998524512646
42
0.042551393567172538
0
LWPOLYLINE
5
113
100
AcDbEntity
8
0
100
AcDbPolyline
90
9
70
1
43
0.0
10
22.969442455721563
20
16.294356169067164
10
23.249102916301403
20
15.902919367222824
42
0.27030974889068865
10
23.435216080871456
20
15.819261134767348
10
29.1408353367862
20
16.423801176292994
42
0.38362265336291346
10
29.240910109426224
20
16.535039568836748
42
0.23975321372899497
10
29.159567620517912
20
16.694926460489327
10
25.291858443669486
20
19.512264390510257
42
0.41596404105671847
10
25.127421198480867
20
19.48592416398008
10
22.969751686244017
20
16.486340419256177
42
0.32141189142357995
0
LWPOLYLINE
5
114
100
AcDbEntity
8
0
100
AcDbPolyline
90
8
70
1
43
0.0
10
29.240910109426224
20
17.727938840864766
10
29.240910109426217
20
20.274516088505997
42
0.45571281371238342
10
29.123948582193627
20
20.376193764138577
10
26.61663645288192
20
20.023927857113264
42
0.049487038899046029
10
26.388222689683612
20
19.968400194552142
10
26.239667315079007
20
19.916290091345036
42
0.60442735163769989
10
26.223682713376036
20
19.807653931655317
10
29.14544247516346
20
17.679369662360788
42
0.61322429161865299
0
LWPOLYLINE
5
115
100
AcDbEntity
8
0
100
AcDbPolyline
90
8
70
1
43
0.0
10
29.12362609664844
20
25.373465932483914
10
28.971253080391357
20
25.39158416916921
42
0.33850486272409974
10
28.809769692599232
20
25.29600179790538
10
27.070561154508265
20
20.986155516947278
42
0.57719696017284372
10
27.143323306726511
20
20.893059801969457
10
29.12394858219362
20
21.171328610620428
42
0.37389736571700855
10
29.240910109426217
20
21.305871407428786
10
29.240910109426217
20
25.241409791961562
42
0.37995904957529203
0
LWPOLYLINE
5
116
100
AcDbEntity
8
0
100
AcDbPolyline
90
11
70
1
43
0.0
10
29.240910109426206
20
26.261218053215792
42
0.41021189895472659
10
26.072264561949989
20
29.473515795660738
10
25.840919326757458
20
29.476681221050569
42
0.00060222332062732811
10
25.833181125198923
20
29.476777778626602
42
0.51779263777617779
10
25.827941343001907
20
29.469538323309312
10
26.621606200205594
20
27.145247709862989
42
0.21862153090626035
10
26.76942251799489
20
26.98957644550763
10
28.589963852058681
20
26.260730326465453
42
0.065707580337664134
10
28.816897385612986
20
26.202886694505608
10
29.186915734774473
20
26.158888877879733
42
0.44931836971214911
10
29.240910109426206
20
26.206843307727024
0
LWPOLYLINE
5
117
100
AcDbEntity
8
0
100
AcDbPolyline
90
9
70
1
43
0.0
10
22.166973614971372
20
24.752542095091997
10
23.720890751800756
20
24.012878336316234
42
0.36025188261948204
10
23.897305306524483
20
24.057416136435073
10
25.836951769906456
20
26.706848267933736
42
0.24498093196602871
10
25.868554553463529
20
26.913922557656299
10
25.064359286395661
20
29.269052047967193
42
0.40014089066309322
10
24.90678051282406
20
29.351187269024784
42
0.26079948655888269
10
22.70038320037375
20
27.119930570048542
10
22.091782578002878
20
24.917150020375651
42
0.36392271714896979
0
LWPOLYLINE
5
118
100
AcDbEntity
8
0
100
AcDbPolyline
90
10
70
1
43
0.0
10
22.300567775682172
20
16.904466212215794
10
24.473405530955503
20
19.925136789279048
42
0.23044341440643873
10
24.509464546309911
20
20.134450523024029
10
23.656716539988576
20
23.073604114207587
42
0.2142278181012349
10
23.517160970263223
20
23.237799516612235
10
21.95403954457387
20
23.981844512156467
42
0.46635874221720092
10
21.815940633234572
20
23.918762492685481
10
19.955702038079476
20
17.185779901909566
42
0.46065461511654759
10
20.041596470011985
20
17.058541342804926
10
22.114249795638397
20
16.821978514696447
42
0.27161415034733427
0
LWPOLYLINE
5
119
100
AcDbEntity
8
0
100
AcDbPolyline
90
12
70
1
43
0.0
10
19.541942072108373
20
9.7557018554128074
10
22.90463031864212
20
14.675886054986519
42
0.25845162482261935
10
22.923963230147628
20
14.881618384101623
10
22.83395840145408
20
15.087496252748961
42
0.052101391691040444
10
22.717986661099612
20
15.291819656315795
10
22.266451638717264
20
15.923826857890127
42
0.21230551597003278
10
22.080442889195943
20
16.033323410559795
10
19.829328575686027
20
16.290254930083663
42
0.36924908825239933
10
19.680526269382714
20
16.189803544433666
10
17.94320777712111
20
9.9017202880731148
42
0.47004936872398173
10
18.02945988629817
20
9.7781123986228398
10
19.357591754289331
20
9.6679528809951503
42
0.26977802286840347
0
LWPOLYLINE
5
120
100
AcDbEntity
8
0
100
AcDbPolyline
90
17
70
1
43
0.0
10
17.026532395273527
20
7.3329030643003827
10
17.081618050066965
20
6.782964117690133
42
0.15805014143336585
10
17.171876182137535
20
6.5771814193760765
10
18.046781979901134
20
5.5933196535097514
42
0.11084575477031255
10
18.233945796470753
20
5.4588073075806856
10
18.814840944014019
20
5.2115856285436681
42
0.34276166105216715
10
18.995214805255358
20
5.2591936392555265
10
19.254263780945475
20
5.5983222251053384
42
0.12922906104743523
10
19.342236859165187
20
5.8091653336128983
10
19.733808839602865
20
8.6234532909531136
42
0.30081828007964023
10
19.648794539972176
20
8.8011832642797021
10
19.648474014279355
20
8.8013754912293862
42
0.11486692522517621
10
19.429476944190377
20
8.8718850659263779
10
17.816054114592013
20
9.0057075310908363
42
0.36049852647870967
10
17.666894131044145
20
8.9016254757864761
10
17.552525174798269
20
8.4876763225250276
42
-0.094265454558321346
10
17.082612049553518
20
7.5333178426820577
42
0.18852387772687876
0
LWPOLYLINE
5
121
100
AcDbEntity
8
0
100
AcDbPolyline
90
10
70
1
43
0.0
10
12.011570244235999
20
6.0140031023932101
10
12.212196076096946
20
5.4131133301155652
42
0.16438514801864132
10
12.347291844366827
20
5.2347007964745202
10
12.97825399143122
20
4.8059564521448097
42
0.29429757548932373
10
13.176758234630116
20
4.8011106691053582
10
16.252037864277003
20
6.67824426506332
42
0.28825894688218145
10
16.292595996445716
20
6.7598045682031929
42
0.5457379911630087
10
16.241274797432023
20
6.7859923894603833
42
-0.10927942106192411
10
15.070248715673642
20
6.4113929299655243
10
12.091777009833928
20
6.1368738917730985
42
0.48340410060700473
0
LWPOLYLINE
5
122
100
AcDbEntity
8
0
100
AcDbPolyline
90
7
70
1
43
0.0
10
7.5997809070693441
20
2.9403513737790661
10
11.34286692534282
20
5.1660943453022465
42
0.35277516793543046
10
11.406980454271022
20
5.338490850033569
10
11.206222605902111
20
5.9397760218899771
42
0.3482502840470873
10
11.051205885538383
20
6.0409667916141956
10
10.412277515145721
20
5.9820782007405091
42
0.3681891366293446
10
7.5018961476191457
20
3.0005051786948633
42
0.6045385165290782
0
LWPOLYLINE
5
123
100
AcDbEntity
8
0
100
AcDbPolyline
90
10
70
1
43
0.0
10
8.2628258140224808
20
0.84907424312553026
10
13.243591334149732
20
0.84907424312552926
42
0.4745363120186637
10
13.338064998216893
20
0.96479520214720804
10
12.734455043221052
20
3.919975099387623
42
0.1955551604792117
10
12.613127680180755
20
4.1020778124982922
10
12.001900831864948
20
4.5174118472532037
42
0.29115790791228596
10
11.802691534666865
20
4.5234278761629252
10
7.6907902392278817
20
2.0783770909977464
42
0.34074804354107846
10
7.6190191624000096
20
1.8973830206457711
42
0.08207635724097144
10
8.0681790140801208
20
0.95089562168306474
42
0.24575721880572449
0
LWPOLYLINE
5
124
100
AcDbEntity
8
0
100
AcDbPolyline
90
9
70
1
43
0.0
10
7.7755449081106338
20
0.061672668322380435
10
30.028311684229365
20
0.061672668322380206
10
30.028311684229362
20
26.261218053215799
42
0.4102118989547241
10
26.083037326097159
20
30.260843673710987
10
25.851692090904642
20
30.264009099100825
42
0.34110520358911711
10
21.941416717858278
20
27.329623484617869
10
16.793558692282804
20
8.6973692370943603
42
-0.31189255672579447
10
14.997981983499308
20
7.1954712165054069
10
10.340010782960151
20
6.7661564872793605
42
0.62247176667113879
0
ENDSEC
0
SECTION
2
OBJECTS
0
DICTIONARY
5
C
100
AcDbDictionary
3
ACAD_GROUP
350
D
3
ACAD_MLINESTYLE
350
17
0
DICTIONARY
5
D
100
AcDbDictionary
0
DICTIONARY
5
1A
330
C
100
AcDbDictionary
0
DICTIONARY
5
17
100
AcDbDictionary
0
ENDSEC
0
EOF
