0
SECTION
2
HEADER
9
$INSUNITS
70
1
9
$ACADVER
1
AC1014
9
$HANDSEED
5
FFFF
0
ENDSEC
0
SECTION
2
TABLES
0
TABLE
2
VPORT
5
8
100
AcDbSymbolTable
0
ENDTAB
0
TABLE
2
LTYPE
5
5
100
AcDbSymbolTable
0
LTYPE
5
14
100
AcDbSymbolTableRecord
100
AcDbLinetypeTableRecord
2
BYBLOCK
70
0
0
LTYPE
5
15
100
AcDbSymbolTableRecord
100
AcDbLinetypeTableRecord
2
BYLAYER
70
0
0
ENDTAB
0
TABLE
2
LAYER
5
2
100
AcDbSymbolTable
70
2
0
LAYER
5
50
100
AcDbSymbolTableRecord
100
AcDbLayerTableRecord
2
0
70
0
6
CONTINUOUS
0
ENDTAB
0
TABLE
2
STYLE
5
3
100
AcDbSymbolTable
70
1
0
STYLE
5
11
100
AcDbSymbolTableRecord
100
AcDbTextStyleTableRecord
2
STANDARD
70
0
0
ENDTAB
0
TABLE
2
VIEW
5
6
100
AcDbSymbolTable
70
0
0
ENDTAB
0
TABLE
2
UCS
5
7
100
AcDbSymbolTable
70
0
0
ENDTAB
0
TABLE
2
APPID
5
9
100
AcDbSymbolTable
70
2
0
APPID
5
12
100
AcDbSymbolTableRecord
100
AcDbRegAppTableRecord
2
ACAD
70
0
0
ENDTAB
0
TABLE
2
DIMSTYLE
5
A
100
AcDbSymbolTable
70
1
0
ENDTAB
0
TABLE
2
BLOCK_RECORD
5
1
100
AcDbSymbolTable
70
1
0
BLOCK_RECORD
5
1F
100
AcDbSymbolTableRecord
100
AcDbBlockTableRecord
2
*MODEL_SPACE
0
BLOCK_RECORD
5
1B
100
AcDbSymbolTableRecord
100
AcDbBlockTableRecord
2
*PAPER_SPACE
0
ENDTAB
0
ENDSEC
0
SECTION
2
BLOCKS
0
BLOCK
5
20
100
AcDbEntity
100
AcDbBlockBegin
2
*MODEL_SPACE
0
ENDBLK
5
21
100
AcDbEntity
100
AcDbBlockEnd
0
BLOCK
5
1C
100
AcDbEntity
100
AcDbBlockBegin
2
*PAPER_SPACE
0
ENDBLK
5
1D
100
AcDbEntity
100
AcDbBlockEnd
0
ENDSEC
0
SECTION
2
ENTITIES
0
LWPOLYLINE
5
100
100
AcDbEntity
8
0
100
AcDbPolyline
90
4
70
1
43
0.0
10
13.376387232793631
20
-7.4999961552657481
10
13.376387232793636
20
12.500003844734248
10
33.376387232793626
20
12.50000384473425
10
33.376387232793626
20
-7.4999961552657535
0
LWPOLYLINE
5
101
100
AcDbEntity
8
0
100
AcDbPolyline
90
4
70
1
43
0.0
10
35.376387232793626
20
16.000003844734248
10
11.376387232793629
20
16.000003844734255
10
11.376387232793631
20
-15.999996155265748
10
35.376387232793626
20
-15.999996155265755
0
LWPOLYLINE
5
102
100
AcDbEntity
8
0
100
AcDbPolyline
90
4
70
1
43
0.0
10
13.816349281412617
20
-12.166651370227001
10
13.816349281412617
20
-10.266651370227002
10
14.816349281412617
20
-10.266651370227004
10
14.816349281412625
20
-12.166651370227004
0
LWPOLYLINE
5
103
100
AcDbEntity
8
0
100
AcDbPolyline
90
4
70
1
43
0.0
10
11.376387232793615
20
-40.574588690632496
10
35.376387232793611
20
-40.574588690632496
10
35.376387232793611
20
-16.249996797388601
10
11.37638723279361
20
-16.249996797388594
0
LWPOLYLINE
5
104
100
AcDbEntity
8
0
100
AcDbPolyline
90
4
70
1
43
0.0
10
-6.6719486695702477
20
-16.250000961183577
10
-6.6719486695702477
20
-40.250000961183574
10
11.126389155160751
20
-40.250000961183574
10
11.126389155160759
20
-16.250000961183577
0
LWPOLYLINE
5
105
100
AcDbEntity
8
0
100
AcDbPolyline
90
4
70
1
43
0.0
10
12.770311014781797
20
-59.863414381357003
10
12.770311014781802
20
-40.824592178898179
10
-11.229688985218191
20
-40.824592178898172
10
-11.229688985218198
20
-59.863414381357003
0
LWPOLYLINE
5
106
100
AcDbEntity
8
0
100
AcDbPolyline
90
7
70
1
43
0.0
10
35.273075868533439
20
-40.824587844488192
10
13.020309092414699
20
-40.824587844488192
10
13.020309092414681
20
-72.824587844488192
10
33.020309092414685
20
-72.824587844488192
10
25.803990768410227
20
-53.335934522205172
42
-0.29719436405450578
10
26.770833306981825
20
-49.075049177306326
10
35.125754146806912
20
-40.975137627152542
42
0.013167240528096166
0
LWPOLYLINE
5
107
100
AcDbEntity
8
0
100
AcDbPolyline
90
4
70
1
43
0.0
10
-11.229688985218216
20
-73.983323264186353
10
12.770311014781793
20
-73.983323264186353
10
12.770311014781798
20
-60.113412505851223
10
-11.229688985218202
20
-60.113412505851223
0
LWPOLYLINE
5
108
100
AcDbEntity
8
0
100
AcDbPolyline
90
7
70
1
43
0.0
10
-11.126383388059363
20
-16.000000000000004
10
11.126383388059375
20
-16.000000000000004
10
11.126383388059375
20
15.999999999999993
10
-8.8736166119406228
20
15.999999999999993
10
-1.6572982879361731
20
-3.4886533222830338
42
-0.29719436405450728
10
-2.6241408265077775
20
-7.7495386671818896
10
-10.979061666332859
20
-15.84945021733566
42
0.013167240528096166
0
LWPOLYLINE
5
109
100
AcDbEntity
8
0
100
AcDbPolyline
90
7
70
1
43
0.0
10
11.126383388059375
20
-16.000000000000004
10
-11.126383388059365
20
-15.999999999999998
42
-0.013167240528095162
10
-10.979061666332861
20
-15.84945021733566
10
-2.6241408265077628
20
-7.7495386671818833
42
0.29719436405450617
10
-1.6572982879361713
20
-3.4886533222830374
10
-8.8736166119406228
20
15.999999999999996
10
11.126383388059381
20
15.999999999999993
0
LINE
5
110
100
AcDbEntity
8
0
100
AcDbLine
10
11.376387232793615
20
-16.249996797388597
30
0
11
35.376387232793611
21
-16.249996797388604
31
0
0
LWPOLYLINE
5
111
100
AcDbEntity
8
0
100
AcDbPolyline
90
4
70
1
43
0.0
10
13.376387232793631
20
12.500003844734254
10
13.376387232793626
20
-7.4999961552657428
10
33.376387232793626
20
-7.4999961552657526
10
33.37638723279364
20
12.500003844734248
0
LWPOLYLINE
5
112
100
AcDbEntity
8
0
100
AcDbPolyline
90
4
70
1
43
0.0
10
11.376387232793638
20
16.000003844734248
10
35.37638723279364
20
16.000003844734245
10
35.376387232793626
20
-15.999996155265748
10
11.376387232793629
20
-15.999996155265743
0
LWPOLYLINE
5
113
100
AcDbEntity
8
0
100
AcDbPolyline
90
4
70
1
43
0.0
10
13.816349281412617
20
-10.266651370227004
10
13.816349281412617
20
-12.166651370227004
10
14.816349281412617
20
-12.166651370227001
10
14.816349281412615
20
-10.266651370227002
0
LWPOLYLINE
5
114
100
AcDbEntity
8
0
100
AcDbPolyline
90
4
70
1
43
0.0
10
35.376387232793604
20
-40.574588690632496
10
11.37638723279361
20
-40.574588690632496
10
11.37638723279362
20
-16.249996797388597
10
35.376387232793611
20
-16.249996797388604
0
LWPOLYLINE
5
115
100
AcDbEntity
8
0
100
AcDbPolyline
90
4
70
1
43
0.0
10
-6.6719486695702477
20
-40.250000961183574
10
-6.6719486695702477
20
-16.250000961183577
10
11.126389155160751
20
-16.250000961183577
10
11.126389155160759
20
-40.250000961183574
0
LWPOLYLINE
5
116
100
AcDbEntity
8
0
100
AcDbPolyline
90
4
70
1
43
0.0
10
12.770311014781807
20
-40.824592178898179
10
12.770311014781802
20
-59.863414381357003
10
-11.229688985218202
20
-59.863414381357003
10
-11.229688985218189
20
-40.824592178898179
0
LWPOLYLINE
5
117
100
AcDbEntity
8
0
100
AcDbPolyline
90
7
70
1
43
0.0
10
13.020309092414687
20
-40.824587844488192
10
35.273075868533439
20
-40.824587844488192
42
-0.013167240528096161
10
35.125754146806919
20
-40.975137627152542
10
26.770833306981835
20
-49.075049177306312
42
0.29719436405450833
10
25.803990768410223
20
-53.335934522205179
10
33.020309092414671
20
-72.824587844488192
10
13.020309092414692
20
-72.824587844488192
0
LWPOLYLINE
5
118
100
AcDbEntity
8
0
100
AcDbPolyline
90
4
70
1
43
0.0
10
12.770311014781797
20
-73.983323264186367
10
-11.229688985218214
20
-73.983323264186367
10
-11.229688985218202
20
-60.113412505851215
10
12.770311014781804
20
-60.113412505851215
0
ENDSEC
0
SECTION
2
OBJECTS
0
DICTIONARY
5
C
100
AcDbDictionary
3
ACAD_GROUP
350
D
3
ACAD_MLINESTYLE
350
17
0
DICTIONARY
5
D
100
AcDbDictionary
0
DICTIONARY
5
1A
330
C
100
AcDbDictionary
0
DICTIONARY
5
17
100
AcDbDictionary
0
ENDSEC
0
EOF
