0
SECTION
2
HEADER
9
$INSUNITS
70
1
9
$ACADVER
1
AC1014
9
$HANDSEED
5
FFFF
0
ENDSEC
0
SECTION
2
TABLES
0
TABLE
2
VPORT
5
8
100
AcDbSymbolTable
0
ENDTAB
0
TABLE
2
LTYPE
5
5
100
AcDbSymbolTable
0
LTYPE
5
14
100
AcDbSymbolTableRecord
100
AcDbLinetypeTableRecord
2
BYBLOCK
70
0
0
LTYPE
5
15
100
AcDbSymbolTableRecord
100
AcDbLinetypeTableRecord
2
BYLAYER
70
0
0
ENDTAB
0
TABLE
2
LAYER
5
2
100
AcDbSymbolTable
70
2
0
LAYER
5
50
100
AcDbSymbolTableRecord
100
AcDbLayerTableRecord
2
0
70
0
6
CONTINUOUS
0
ENDTAB
0
TABLE
2
STYLE
5
3
100
AcDbSymbolTable
70
1
0
STYLE
5
11
100
AcDbSymbolTableRecord
100
AcDbTextStyleTableRecord
2
STANDARD
70
0
0
ENDTAB
0
TABLE
2
VIEW
5
6
100
AcDbSymbolTable
70
0
0
ENDTAB
0
TABLE
2
UCS
5
7
100
AcDbSymbolTable
70
0
0
ENDTAB
0
TABLE
2
APPID
5
9
100
AcDbSymbolTable
70
2
0
APPID
5
12
100
AcDbSymbolTableRecord
100
AcDbRegAppTableRecord
2
ACAD
70
0
0
ENDTAB
0
TABLE
2
DIMSTYLE
5
A
100
AcDbSymbolTable
70
1
0
ENDTAB
0
TABLE
2
BLOCK_RECORD
5
1
100
AcDbSymbolTable
70
1
0
BLOCK_RECORD
5
1F
100
AcDbSymbolTableRecord
100
AcDbBlockTableRecord
2
*MODEL_SPACE
0
BLOCK_RECORD
5
1B
100
AcDbSymbolTableRecord
100
AcDbBlockTableRecord
2
*PAPER_SPACE
0
ENDTAB
0
ENDSEC
0
SECTION
2
BLOCKS
0
BLOCK
5
20
100
AcDbEntity
100
AcDbBlockBegin
2
*MODEL_SPACE
0
ENDBLK
5
21
100
AcDbEntity
100
AcDbBlockEnd
0
BLOCK
5
1C
100
AcDbEntity
100
AcDbBlockBegin
2
*PAPER_SPACE
0
ENDBLK
5
1D
100
AcDbEntity
100
AcDbBlockEnd
0
ENDSEC
0
SECTION
2
ENTITIES
0
LWPOLYLINE
5
100
100
AcDbEntity
8
0
100
AcDbPolyline
90
8
70
1
43
0.0
10
-5.8053271060188969
20
14.999071600900244
10
-0.90196862837900516
20
13.770196713721024
42
0.48810867858848495
10
-0.78740157480314765
20
13.85959426746488
10
-0.78740157480314954
20
16.361299087873224
42
0.44166024418024846
10
-0.90500369475766484
20
16.468465408786113
10
-5.5911825955585144
20
16.032375098284923
42
0.32824556120313081
10
-5.733330454295781
20
15.905899652183079
10
-5.8953484208119997
20
15.143315814171117
42
0.403645832078672
0
LWPOLYLINE
5
101
100
AcDbEntity
8
0
100
AcDbPolyline
90
8
70
1
43
0.0
10
-7.3287122681478314
20
12.61205872607802
10
-0.89747926054461724
20
10.11074588526178
42
0.52753384247978219
10
-0.78740157480315076
20
10.186043378030577
10
-0.78740157480314932
20
12.811620475918142
42
0.34398786108622048
10
-0.90196862837900427
20
12.95844339461523
10
-6.1098388820327258
20
14.263634724106423
42
0.30338608233710296
10
-6.2947622184993719
20
14.197478964212316
10
-7.3684336709985061
20
12.749739911900416
42
0.49482104470054072
0
LWPOLYLINE
5
102
100
AcDbEntity
8
0
100
AcDbPolyline
90
6
70
1
43
0.0
10
-0.86982436990455636
20
8.4863453031836311
10
-2.4417819036345203
20
6.8729375662102381
42
0.46930331955560289
10
-2.4259323193801929
20
6.7228237161346778
10
-0.88567395415888572
20
5.6959414255678595
42
0.59902816201425091
10
-0.7874015748031491
20
5.7485339744373727
10
-0.78740157480314921
20
8.4528312296877601
42
0.67289423503936385
0
LWPOLYLINE
5
103
100
AcDbEntity
8
0
100
AcDbPolyline
90
8
70
1
43
0.0
10
-18.750679956092227
20
0.78740157480315287
10
-15.491378989287407
20
0.78740157480314932
42
0.48283796349787284
10
-15.400022644918083
20
0.90244181633137699
10
-16.181650544149974
20
4.2633981516984996
42
0.20381174520328593
10
-16.309825933885101
20
4.4389669622419134
10
-17.19682829187342
20
4.9683318854808283
42
0.46902020952913059
10
-17.339262666889628
20
4.9180995777868066
10
-18.827777315180469
20
0.89816245151235763
42
0.52233597042910962
0
LWPOLYLINE
5
104
100
AcDbEntity
8
0
100
AcDbPolyline
90
8
70
1
43
0.0
10
-14.421390914593651
20
10.262767120090048
10
-13.228997797378987
20
14.005887726647661
42
0.33647847249036639
10
-13.291886260574326
20
14.183239477397102
10
-13.689223527947117
20
14.444059361041278
42
0.48214339243843407
10
-13.828974549047766
20
14.398112115812861
10
-15.288638954335822
20
10.45608901146764
42
0.45421463751422925
10
-15.214388663791775
20
10.31955159353806
10
-14.572503763043008
20
10.176005542041773
42
0.38855817447383839
0
LWPOLYLINE
5
105
100
AcDbEntity
8
0
100
AcDbPolyline
90
19
70
1
43
0.0
10
-12.045275831269045
20
19.215234141397268
10
-13.466379412938512
20
15.377349808317796
42
0.3493971030087899
10
-13.408654146102323
20
15.201775300127798
10
-12.651479173294002
20
14.704750972125705
42
0.062722131758063335
10
-12.441015784723234
20
14.601629409108469
10
-8.1951363085736766
20
13.145818228177532
42
0.32667784591956966
10
-8.0130547810805375
20
13.202378739011804
10
-6.8215545590821209
20
14.808998155231034
42
0.10760484466766899
10
-6.7266525374085777
20
15.019398128396016
10
-6.4538416431946555
20
16.303460527366468
42
0.063908405284555131
10
-6.4347199887035789
20
16.536977681054587
10
-6.5371136441542212
20
18.764262245428149
42
0.29524225485263267
10
-6.6523746907732955
20
18.92567446854293
10
-9.7338800700898958
20
20.144019362198183
42
0.069632105834915595
10
-9.9612555548636053
20
20.199053013775561
10
-11.431157170905902
20
20.344207327367915
42
0.14150133711535742
10
-11.654326507077748
20
20.302973494063554
10
-11.686645461676262
20
20.286806221540822
42
0.24167042528335489
10
-11.807361278786049
20
20.122179688308925
42
-0.049081459948597542
0
LWPOLYLINE
5
106
100
AcDbEntity
8
0
100
AcDbPolyline
90
7
70
1
43
0.0
10
-12.060729102407999
20
22.68835936434991
10
-12.151912278141037
20
26.70747945140171
42
0.546833223137277
10
-12.260761631954914
20
26.773811195527209
10
-14.469032790819508
20
25.697486580731145
42
0.52002917808410232
10
-14.490402559449029
20
25.563526096952511
10
-13.20244170420569
20
24.314876443947558
42
-0.1040821694371924
10
-12.09973443361792
20
22.680274917091623
42
0.83302141223141701
0
LWPOLYLINE
5
107
100
AcDbEntity
8
0
100
AcDbPolyline
90
10
70
1
43
0.0
10
-11.422705264983268
20
31.212598425196848
10
-20.199214238200796
20
31.212598425196848
42
0.67379691116798257
10
-20.232523807906414
20
31.130386048642631
10
-15.261254128489075
20
26.310849697884713
42
0.31576421613230765
10
-15.070283026829847
20
26.280385428554911
10
-12.133606506642051
20
27.711739187663444
42
0.11164275956677677
10
-11.953855883403222
20
27.855877683024509
10
-11.516098754706752
20
28.405544000511181
42
0.15670973520046896
10
-11.436525487242193
20
28.615892478237818
10
-11.310588108132904
20
31.094640335606861
42
0.42916113816335488
0
LWPOLYLINE
5
108
100
AcDbEntity
8
0
100
AcDbPolyline
90
10
70
1
43
0.0
10
-1.2357698266899848
20
31.212598425196848
10
-10.398067598574249
20
31.212598425196848
42
0.39942232306301556
10
-10.522170914164832
20
31.094640335606861
10
-10.6466532480182
20
28.644531237722802
42
0.23427521648140501
10
-10.562391305786257
20
28.450388773254051
10
-8.2860920263293796
20
26.528961748317577
42
0.076418035281519289
10
-8.0868662709545003
20
26.407220737467004
10
-5.9980582005621388
20
25.533967290571514
42
0.32914555425134628
10
-5.813463244418922
20
25.579135540330846
10
-1.1932838128399033
20
31.121873539465707
42
0.63592425275149944
0
LWPOLYLINE
5
109
100
AcDbEntity
8
0
100
AcDbPolyline
90
10
70
1
43
0.0
10
-11.07371853189365
20
27.697085557271308
10
-11.304508776651256
20
27.407295590114149
42
0.17557874043682348
10
-11.375410046076206
20
27.196825350627584
10
-11.240138220166914
20
21.234390851570751
42
0.37916851506241139
10
-11.119920779051093
20
21.104703948864366
10
-10.169478671997451
20
21.010846802132264
42
0.37376044663283176
10
-10.024037815127787
20
21.114006852480877
10
-8.8715449769854313
20
25.854408166673725
42
0.28437148161654507
10
-8.9338976641641388
20
26.045359643257573
10
-10.909883322197146
20
27.713291570529186
42
0.42259010681226405
0
LWPOLYLINE
5
110
100
AcDbEntity
8
0
100
AcDbPolyline
90
12
70
1
43
0.0
10
-0.78740157480314932
20
0.90551181102362188
10
-0.78740157480314954
20
4.5659622829654847
42
0.25075970987318524
10
-0.8856739541588855
20
4.7495902065369178
10
-3.1044324606968567
20
6.2288250341828366
42
0.22148717041531868
10
-3.3160887719320415
20
6.2612653593110856
10
-3.7739731957458758
20
6.1276872703211005
42
0.24532660819374716
10
-3.9250308562159177
20
5.9826692181141921
10
-5.0023705468782502
20
2.7815486274058503
42
0.16588972207447519
10
-5.00144457814989
20
2.5579831585106021
10
-4.4277795625946519
20
0.89902635371420081
42
0.31974026005119388
10
-4.2710696290552272
20
0.78740157480315009
10
-0.90551181102362222
20
0.78740157480314954
42
0.41421356237309637
0
LWPOLYLINE
5
111
100
AcDbEntity
8
0
100
AcDbPolyline
90
10
70
1
43
0.0
10
-11.797122338162383
20
0.78740157480314898
10
-5.340440114491761
20
0.78740157480314954
42
0.51544971426607034
10
-5.2609295755902403
20
0.89902635371420048
10
-5.7357313484813925
20
2.2720848647074097
42
0.20056580324051199
10
-5.8808820496670879
20
2.4346695442761859
10
-7.8289922099866169
20
3.3663876570810713
42
0.039049529725215845
10
-8.0487218848076232
20
3.4511205697614429
10
-10.202677652543871
20
4.0938704220670283
42
0.3690646278274578
10
-10.366864146775344
20
4.0211153633074721
10
-11.864224751105651
20
0.89392964558534749
42
0.55195026980688444
0
LWPOLYLINE
5
112
100
AcDbEntity
8
0
100
AcDbPolyline
90
12
70
1
43
0.0
10
-7.5838779231512268
20
11.744238960553083
10
-7.6155442682174179
20
11.437430623084184
42
0.17742434038258459
10
-7.5610250528127834
20
11.222433253402892
10
-7.0102140154848023
20
10.41651976363972
42
0.024118057895527064
10
-6.8678426385145155
20
10.228368701635423
10
-4.133659928353679
20
6.9557112785395825
42
0.29804640733916504
10
-3.9445498286733045
20
6.8981488293644189
10
-3.4599888427063585
20
7.0395092407220323
42
0.12935399419115806
10
-3.2641821157255029
20
7.1571827656693445
10
-1.2062891338698007
20
9.2693393523113308
42
0.53732958324351132
10
-1.2339440245098592
20
9.396748258487607
10
-7.4616742436450423
20
11.818912336176275
42
0.49509920398550794
0
LWPOLYLINE
5
113
100
AcDbEntity
8
0
100
AcDbPolyline
90
8
70
1
43
0.0
10
-7.2715562412363406
20
3.9726072333001614
10
-5.7938696338965752
20
3.265877498426319
42
0.45025502512648624
10
-5.6496449014392409
20
3.3268582877527919
10
-4.6760367836984695
20
6.2197592176950547
42
0.26084485515309902
10
-4.7140892229088038
20
6.4223397190771232
10
-6.8709641284028518
20
9.0039933312964102
42
0.66981972274699619
10
-6.956702265475518
20
8.9769480188622648
10
-7.3680952758313421
20
4.1412522577899047
42
0.31195554316107571
0
LWPOLYLINE
5
114
100
AcDbEntity
8
0
100
AcDbPolyline
90
12
70
1
43
0.0
10
-13.232270916825131
20
5.5942561407728197
10
-15.306999780724945
20
4.4819938643840382
42
0.33894969821013554
10
-15.384340975928286
20
4.3111482400404002
10
-14.591608260830128
20
0.90244181633137632
42
0.34876503652644691
10
-14.446744132758509
20
0.78740157480314765
10
-12.906353889443903
20
0.78740157480314887
42
0.2887010872125827
10
-12.737235829946226
20
0.89392964558534826
10
-11.008971384898103
20
4.5033500306091963
42
0.21642203759002027
10
-11.004607462249382
20
4.7183878909691819
10
-11.257235564228669
20
5.3060879292988892
42
0.26507305993774027
10
-11.421018006501212
20
5.4297169107055669
10
-13.011037288126586
20
5.6349423317593406
42
0.15637377040750258
0
LWPOLYLINE
5
115
100
AcDbEntity
8
0
100
AcDbPolyline
90
10
70
1
43
0.0
10
-15.74837474541526
20
5.1387884265990964
10
-13.835407990713916
20
6.164330025919579
42
0.41027257316915416
10
-13.785710675393361
20
6.3249729512969886
10
-14.398615698680379
20
7.5061878139129803
42
0.29789150117365448
10
-14.570867151190203
20
7.6032447506097309
10
-16.271602034493512
20
7.490963592133026
42
0.29575849624156997
10
-16.430468592401631
20
7.3724221095585714
10
-16.979152235440438
20
5.8906269859675255
42
0.36145165806880503
10
-16.91874361468869
20
5.7193375402431341
10
-15.953891330353725
20
5.1435116127988731
42
0.26339283636708694
0
LWPOLYLINE
5
116
100
AcDbEntity
8
0
100
AcDbPolyline
90
9
70
1
43
0.0
10
-14.507256719946422
20
8.509379256613645
10
-14.362018498137447
20
9.0991464662127992
42
0.20419698948555107
10
-14.388647937365111
20
9.2627050531485366
42
0.19920702954818725
10
-14.524709292148868
20
9.3584663051006718
10
-15.490304098598118
20
9.574404274118832
42
0.3753127966162908
10
-15.646580143406629
20
9.4894199386299967
10
-16.048924710525629
20
8.4028334782457197
42
0.54349750034527322
10
-15.97208390688197
20
8.2998532074017586
10
-14.653352869283395
20
8.38691477712341
42
0.32679376823893352
0
LWPOLYLINE
5
117
100
AcDbEntity
8
0
100
AcDbPolyline
90
11
70
1
43
0.0
10
-13.654554555152819
20
9.6577999586881624
10
-9.841461453998777
20
9.7810989934790449
42
0.21563660848517285
10
-9.6483285397345639
20
9.8760883431733983
10
-8.4886086884482612
20
11.284293034046751
42
0.14757903492318969
10
-8.4013983171364863
20
11.492951320741057
10
-8.3246867194251841
20
12.23619332448958
42
0.3490547336684654
10
-8.4242859702628134
20
12.391987375100893
10
-12.362631711355265
20
13.742352545959116
42
0.42064904526651337
10
-12.510206636730688
20
13.668122358226919
10
-13.745079797380635
20
9.791649819613971
42
0.22168946664868985
10
-13.733222324666137
20
9.6994688064502625
42
0.26571863777382698
0
LWPOLYLINE
5
118
100
AcDbEntity
8
0
100
AcDbPolyline
90
12
70
1
43
0.0
10
-10.556914844787501
20
5.6707343646885322
10
-10.283309290074554
20
5.0342335410184713
42
0.22226138302537718
10
-10.123486718491801
20
4.8919507394180402
10
-8.257889002458473
20
4.3352481950095756
42
0.47565140478006335
10
-8.1346983622324647
20
4.4191603068189513
10
-7.6720683010521373
20
9.8571190700449272
42
0.17279198999948858
10
-7.7287015409497508
20
10.072315444483369
10
-7.9967447386952282
20
10.464500085427133
42
0.49954025980460742
10
-8.1384743254116376
20
10.470839168414118
10
-9.1163224243203107
20
9.2834745834952006
42
0.074293871691601066
10
-9.2365624210079158
20
9.0831648973035968
10
-10.558403126275435
20
5.8883816728384826
42
0.20226295122125007
0
LWPOLYLINE
5
119
100
AcDbEntity
8
0
100
AcDbPolyline
90
10
70
1
43
0.0
10
-10.247792910568753
20
8.9801468615656646
10
-13.489099699017835
20
8.8753369374764919
42
0.33611639963061468
10
-13.635390704296073
20
8.7568358817765901
10
-13.77614378899464
20
8.1852814178674436
42
0.18199375320691491
10
-13.749988485821786
20
7.9657600016804579
10
-13.002733294443198
20
6.5256201681225861
42
0.24572387881908747
10
-12.831196981065204
20
6.4056634337317
10
-11.396525570139787
20
6.2204889218352122
42
0.33885706053647724
10
-11.234231409355173
20
6.3145072485784848
10
-10.174899992992147
20
8.874826525068416
42
0.5448179544860593
0
LWPOLYLINE
5
120
100
AcDbEntity
8
0
100
AcDbPolyline
90
10
70
1
43
0.0
10
-5.7553071218340701
20
18.904056621984548
10
-5.6647765799463405
20
16.934820562743493
42
0.42800358805109545
10
-5.5417503757001443
20
16.82777885515722
10
-0.90500369475766373
20
17.259269061274193
42
0.38728941723524818
10
-0.78740157480314865
20
17.388323212802248
10
-0.78740157480314876
20
17.615470385473401
42
0.25578134313612433
10
-0.88689306680315094
20
17.797231787587904
10
-4.6437481987869997
20
20.200735890689856
42
0.38032330417594662
10
-4.8180768191937471
20
20.173011829569731
10
-5.6858940777190092
20
19.113417471892564
42
0.18511319162049283
0
LWPOLYLINE
5
121
100
AcDbEntity
8
0
100
AcDbPolyline
90
12
70
1
43
0.0
10
-9.176822116962768
20
20.770484729702975
10
-6.3932791583932023
20
19.669946216090072
42
0.32614897700637147
10
-6.2086050676590681
20
19.717894842883311
10
-5.2265429022055434
20
20.916980847661684
42
0.042284855957207351
10
-5.0933078011128448
20
21.111019138560692
10
-5.0284003614855575
20
21.225125781558262
42
0.21216033948229127
10
-5.0070500105761671
20
21.439938306524105
10
-6.053240033321071
20
24.606933692807168
42
0.21726504989022977
10
-6.1992583888704607
20
24.764639789859974
10
-8.0209492920165761
20
25.526221422418338
42
0.46112952950122627
10
-8.1578223602127462
20
25.457010956685064
10
-9.2587567448668171
20
20.928678431628967
42
0.37434326175348953
0
LWPOLYLINE
5
122
100
AcDbEntity
8
0
100
AcDbPolyline
90
10
70
1
43
0.0
10
-0.86302579717354211
20
30.288310386134992
10
-5.2547351781070457
20
25.019663393665731
42
0.25905341848878993
10
-5.2933117787008701
20
24.816789046853597
10
-4.3255394016345674
20
21.887177230159281
42
0.40830971760531559
10
-4.1756169232269169
20
21.809802683033155
10
-4.0929823794414535
20
21.83526104670781
42
0.21346676801878126
10
-3.9307957857948881
20
21.977359678882703
10
-0.83671331181862385
20
28.711424542229903
42
0.10809280291482627
10
-0.78740157480315176
20
28.936858496670403
10
-0.78740157480315043
20
30.260925035645663
42
0.70142369816570693
0
LWPOLYLINE
5
123
100
AcDbEntity
8
0
100
AcDbPolyline
90
6
70
1
43
0.0
10
-0.83671331181862363
20
26.825460030957888
10
-2.9940467439383815
20
22.130167198284258
42
0.58735176599536254
10
-2.9261372969949506
20
22.037307985977915
10
-0.90462275876205922
20
22.286752736536968
42
0.37869421281359777
10
-0.7874015748031481
20
22.419327478671125
10
-0.78740157480314976
20
26.814673512957445
42
0.80490297810693923
0
LWPOLYLINE
5
124
100
AcDbEntity
8
0
100
AcDbPolyline
90
9
70
1
43
0.0
10
-4.2796163148086617
20
20.902532251789353
10
-0.88689306680315183
20
18.731986952385004
42
0.59263394931899582
10
-0.78740157480315076
20
18.786446022711448
10
-0.78740157480314987
20
21.389733463501155
42
0.4506479982377436
10
-0.90462275876206044
20
21.493379193807943
10
-3.495962077574589
20
21.173620924564869
42
0.044048996709974669
10
-3.7260581181645849
20
21.124381504696323
10
-4.2542827206899041
20
20.961644065642947
42
0.19096011013525993
10
-4.2876133347589889
20
20.934897895709998
42
0.39907532911491772
0
LWPOLYLINE
5
125
100
AcDbEntity
8
0
100
AcDbPolyline
90
7
70
1
43
0.0
10
0
20
0
10
-1.5381081495462356e-15
20
31.999999999999996
10
-22.252766776118737
20
31.999999999999996
42
0.013167240528087201
10
-22.105445054392227
20
31.849450217335647
10
-13.750524214567147
20
23.749538667181874
42
-0.29719436405450572
10
-12.783681675995535
20
19.488653322283024
10
-19.999999999999996
20
0
0
ENDSEC
0
SECTION
2
OBJECTS
0
DICTIONARY
5
C
100
AcDbDictionary
3
ACAD_GROUP
350
D
3
ACAD_MLINESTYLE
350
17
0
DICTIONARY
5
D
100
AcDbDictionary
0
DICTIONARY
5
1A
330
C
100
AcDbDictionary
0
DICTIONARY
5
17
100
AcDbDictionary
0
ENDSEC
0
EOF
