0
SECTION
2
HEADER
9
$INSUNITS
70
1
9
$ACADVER
1
AC1014
9
$HANDSEED
5
FFFF
0
ENDSEC
0
SECTION
2
TABLES
0
TABLE
2
VPORT
5
8
100
AcDbSymbolTable
0
ENDTAB
0
TABLE
2
LTYPE
5
5
100
AcDbSymbolTable
0
LTYPE
5
14
100
AcDbSymbolTableRecord
100
AcDbLinetypeTableRecord
2
BYBLOCK
70
0
0
LTYPE
5
15
100
AcDbSymbolTableRecord
100
AcDbLinetypeTableRecord
2
BYLAYER
70
0
0
ENDTAB
0
TABLE
2
LAYER
5
2
100
AcDbSymbolTable
70
2
0
LAYER
5
50
100
AcDbSymbolTableRecord
100
AcDbLayerTableRecord
2
0
70
0
6
CONTINUOUS
0
ENDTAB
0
TABLE
2
STYLE
5
3
100
AcDbSymbolTable
70
1
0
STYLE
5
11
100
AcDbSymbolTableRecord
100
AcDbTextStyleTableRecord
2
STANDARD
70
0
0
ENDTAB
0
TABLE
2
VIEW
5
6
100
AcDbSymbolTable
70
0
0
ENDTAB
0
TABLE
2
UCS
5
7
100
AcDbSymbolTable
70
0
0
ENDTAB
0
TABLE
2
APPID
5
9
100
AcDbSymbolTable
70
2
0
APPID
5
12
100
AcDbSymbolTableRecord
100
AcDbRegAppTableRecord
2
ACAD
70
0
0
ENDTAB
0
TABLE
2
DIMSTYLE
5
A
100
AcDbSymbolTable
70
1
0
ENDTAB
0
TABLE
2
BLOCK_RECORD
5
1
100
AcDbSymbolTable
70
1
0
BLOCK_RECORD
5
1F
100
AcDbSymbolTableRecord
100
AcDbBlockTableRecord
2
*MODEL_SPACE
0
BLOCK_RECORD
5
1B
100
AcDbSymbolTableRecord
100
AcDbBlockTableRecord
2
*PAPER_SPACE
0
ENDTAB
0
ENDSEC
0
SECTION
2
BLOCKS
0
BLOCK
5
20
100
AcDbEntity
100
AcDbBlockBegin
2
*MODEL_SPACE
0
ENDBLK
5
21
100
AcDbEntity
100
AcDbBlockEnd
0
BLOCK
5
1C
100
AcDbEntity
100
AcDbBlockBegin
2
*PAPER_SPACE
0
ENDBLK
5
1D
100
AcDbEntity
100
AcDbBlockEnd
0
ENDSEC
0
SECTION
2
ENTITIES
0
LWPOLYLINE
5
100
100
AcDbEntity
8
0
100
AcDbPolyline
90
9
70
1
43
0.0
10
21.209074733329146
20
96.731956684536939
10
21.209074733329139
20
74.479189908418206
42
0.6224717666711389
10
27.913558552286123
20
77.043655783267724
10
28.342873281512176
20
81.701626983806875
42
-0.31189255672579241
10
29.844771302101123
20
83.497203692590361
10
48.477025549624614
20
88.645061718165849
42
0.34110520358911661
10
51.411411164107605
20
92.555337091212195
10
51.40824573871776
20
92.786682326404716
42
0.41021189895472282
10
47.408620118222572
20
96.731956684536939
0
LWPOLYLINE
5
101
100
AcDbEntity
8
0
100
AcDbPolyline
90
9
70
1
43
0.0
10
58.551602574280345
20
73.257287671393158
10
58.551602574280345
20
95.510054447511905
42
0.6224717666711399
10
51.847118755323358
20
92.945588572662373
10
51.417804026097322
20
88.287617372123222
42
-0.31189255672578914
10
49.915906005508369
20
86.492040663339736
10
31.28365175798487
20
81.344182637764249
42
0.34110520358911661
10
28.349266143501879
20
77.433907264717902
10
28.352431568891728
20
77.202562029525382
42
0.41021189895472282
10
32.352057189386912
20
73.257287671393172
0
CIRCLE
5
102
100
AcDbEntity
8
0
100
AcDbCircle
10
28.683163652491452
20
66.250795910615693
30
0
40
0.5624999999999919
210
-7.3157307771573419e-33
220
-2.4362375054216223e-80
230
1
0
CIRCLE
5
103
100
AcDbEntity
8
0
100
AcDbCircle
10
27.249088131658141
20
53.853259745757391
30
0
40
0.56250000000000588
210
-7.3157307771564825e-33
220
-2.4362375054213362e-80
230
1
0
CIRCLE
5
104
100
AcDbEntity
8
0
100
AcDbCircle
10
29.27316365249148
20
52.553259745757359
30
0
40
0.56250000000000033
210
-7.3157307771568273e-33
220
-2.4651903288156619e-32
230
1
0
CIRCLE
5
105
100
AcDbEntity
8
0
100
AcDbCircle
10
27.852052541380349
20
57.143259745757305
30
0
40
0.50000000000000411
210
7.781672811390675e-33
220
-2.4651903288156624e-32
230
1
0
CIRCLE
5
106
100
AcDbEntity
8
0
100
AcDbCircle
10
27.249088131658134
20
66.250795910615722
30
0
40
0.56250000000000167
210
-7.3157307771567397e-33
220
-2.4362375054214216e-80
230
1
0
CIRCLE
5
107
100
AcDbEntity
8
0
100
AcDbCircle
10
27.852052541380349
20
64.950795910615696
30
1.7483827159451283e-16
40
0.56250000000001565
210
-7.3157307771558804e-33
220
-2.4362375054211351e-80
230
1
0
CIRCLE
5
108
100
AcDbEntity
8
0
100
AcDbCircle
10
28.683163652491452
20
53.853259745757391
30
0
40
0.56249999999999745
210
-7.315730777156997e-33
220
-2.436237505421507e-80
230
1
0
CIRCLE
5
109
100
AcDbEntity
8
0
100
AcDbCircle
10
27.85205254138036
20
52.553259745757373
30
0
40
0.56250000000002831
210
-7.3157307771551085e-33
220
-2.4362375054208781e-80
230
1
0
CIRCLE
5
110
100
AcDbEntity
8
0
100
AcDbCircle
10
29.273163652491469
20
64.950795910615696
30
1.7483827159451283e-16
40
0.56250000000000311
210
-7.3157307771566522e-33
220
-2.4362375054213924e-80
230
1
0
CIRCLE
5
111
100
AcDbEntity
8
0
100
AcDbCircle
10
27.852052541380349
20
69.540795910615643
30
-1.7483827159451283e-16
40
0.49999999999999978
210
7.781672811390508e-33
220
2.5914025181494913e-80
230
1
0
LWPOLYLINE
5
112
100
AcDbEntity
8
0
100
AcDbPolyline
90
4
70
1
43
0.0
10
32.102044659552945
20
49.015777828186508
10
32.102044659552945
20
73.015777828186515
10
23.048749068809286
20
73.015777828186501
10
23.048749068809286
20
49.015777828186508
0
LWPOLYLINE
5
113
100
AcDbEntity
8
0
100
AcDbPolyline
90
4
70
1
43
0.0
10
22.798745672953618
20
49.010145292507353
10
22.798745672953618
20
73.010145292507374
10
15.765736373732826
20
73.010145292507374
10
15.765736373732823
20
49.010145292507353
0
LWPOLYLINE
5
114
100
AcDbEntity
8
0
100
AcDbPolyline
90
4
70
1
43
0.0
10
55.352051377522656
20
51.007292499692412
10
35.352051377522642
20
51.007292499692412
10
35.352051377522635
20
71.007292499692412
10
55.352051377522656
20
71.007292499692412
0
LWPOLYLINE
5
115
100
AcDbEntity
8
0
100
AcDbPolyline
90
4
70
1
43
0.0
10
58.551596762416089
20
49.007292499692412
10
58.551596762416089
20
73.007292499692412
10
32.352051377522642
20
73.007292499692412
10
32.352051377522635
20
49.007292499692412
0
LWPOLYLINE
5
116
100
AcDbEntity
8
0
100
AcDbPolyline
90
4
70
1
43
0.0
10
14.551596925232779
20
48.757293223026856
10
14.551596925232774
20
29.007293223026863
10
34.301596925232772
20
29.007293223026856
10
34.301596925232779
20
48.757293223026856
0
LINE
5
117
100
AcDbEntity
8
0
100
AcDbLine
10
58.551599938099777
20
48.757294963343675
30
0
11
34.551599938099763
21
48.757294963343682
31
0
0
LINE
5
118
100
AcDbEntity
8
0
100
AcDbLine
10
36.55159993809977
20
45.257294963343682
30
0
11
56.55159993809977
21
45.257294963343675
31
0
0
LWPOLYLINE
5
119
100
AcDbEntity
8
0
100
AcDbPolyline
90
4
70
1
43
0.0
10
58.551599938099777
20
48.757294963343675
10
34.551599938099763
20
48.757294963343682
10
34.551599938099748
20
25.92697317099271
10
58.551599938099777
20
25.926973170992699
0
LWPOLYLINE
5
120
100
AcDbEntity
8
0
100
AcDbPolyline
90
4
70
1
43
0.0
10
56.55159993809977
20
45.257294963343675
10
56.55159993809977
20
33.257294963343647
10
36.55159993809977
20
33.257294963343647
10
36.551599938099763
20
45.257294963343675
0
CIRCLE
5
121
100
AcDbEntity
8
0
100
AcDbCircle
10
54.676599938099777
20
30.665739417480602
30
1.7483827159451283e-16
40
1.8749999999999982
210
-0
220
0
230
1
0
CIRCLE
5
122
100
AcDbEntity
8
0
100
AcDbCircle
10
38.426599938099763
20
30.665739417480594
30
1.7483827159451283e-16
40
1.8749999999999982
210
-0
220
0
230
1
0
LWPOLYLINE
5
123
100
AcDbEntity
8
0
100
AcDbPolyline
90
4
70
1
43
0.0
10
58.551598015732651
20
25.67697077034499
10
34.551598015732651
20
25.676970770344997
10
34.551598015732644
20
5.0232179985099581
10
58.551598015732651
20
5.023217998509951
0
LWPOLYLINE
5
124
100
AcDbEntity
8
0
100
AcDbPolyline
90
4
70
1
43
0.0
10
34.301601335394828
20
4.7572924996923946
10
34.301601335394828
20
28.757292499692394
10
30.248094034616216
20
28.757292499692394
10
30.248094034616216
20
4.7572924996923946
0
ENDSEC
0
SECTION
2
OBJECTS
0
DICTIONARY
5
C
100
AcDbDictionary
3
ACAD_GROUP
350
D
3
ACAD_MLINESTYLE
350
17
0
DICTIONARY
5
D
100
AcDbDictionary
0
DICTIONARY
5
1A
330
C
100
AcDbDictionary
0
DICTIONARY
5
17
100
AcDbDictionary
0
ENDSEC
0
EOF
